<?xml version="1.0" encoding="UTF-8"?>
<svg id="Layer_1" data-name="Layer 1" xmlns="http://www.w3.org/2000/svg" viewBox="0 0 753 220">
  <path d="M43.88,43.51h-16.05l-.54-23.67,126.26.27.82,22.04-23.13,2.18,1.36,164.35-87.89.27-.82-165.44Z" stroke="#000" stroke-miterlimit="10" stroke-width="3.78"/>
  <path d="M193.28,44.87c0-21.5,15.24-32.38,29.66-33.47,14.69-.82,34.83,7.08,37.82,25.31,2.72,17.96-5.17,38.91-29.12,42.45-23.67,3.81-38.37-12.79-38.37-34.29ZM194.09,105.55l66.94-2.72c.82,0,4.9,104.76,4.9,104.76h-71.84v-102.04Z" stroke="#000" stroke-miterlimit="10" stroke-width="3.78"/>
  <path d="M311.65,15.76l58.5,1.36.82,73.74,16.6-14.42h54.97l-34.29,66.94,31.84,65.58h-60.68l-11.43-15.24-5.44,14.42-50.88-.54V15.76Z" stroke="#000" stroke-miterlimit="10" stroke-width="3.78"/>
  <path d="M539.68,69.64c47.89,0,60.68,51.43,60.68,86.53l-60.68,13.06,44.63,21.5-11.16,24.22c-56.33,0-106.67-19.86-106.67-76.46,0-35.1,20.14-68.84,73.2-68.84ZM554.1,136.3s-4.08-19.86-23.95-14.42c-14.97,4.35-9.8,24.22-9.8,24.22l33.74-9.8Z" stroke="#000" stroke-miterlimit="10" stroke-width="3.78"/>
  <path d="M648.53,108.82l-18.78.82,2.18-34.56,17.96-1.09.82-31.02,63.13-2.18.82,34.01,30.75-.27.54,30.75-32.11,1.36,2.18,52.52h34.29c.27,14.97-4.63,56.33-55.51,56.33-46.8,0-47.08-35.37-46.8-57.69l.54-48.98Z" stroke="#000" stroke-miterlimit="10" stroke-width="3.78"/>
  <path d="M19.29,36.68H3.24l-.54-23.67,126.26.27.82,22.04-23.13,2.18,1.36,164.35-87.89.27-.82-165.44Z" fill="#e4c59e" stroke="#e4c59e" stroke-miterlimit="10" stroke-width="3.78"/>
  <path d="M168.69,38.04c0-21.5,15.24-32.38,29.66-33.47,14.69-.82,34.83,7.08,37.82,25.31,2.72,17.96-5.17,38.91-29.12,42.45-23.67,3.81-38.37-12.79-38.37-34.29ZM169.5,98.72l66.94-2.72c.82,0,4.9,104.76,4.9,104.76h-71.84v-102.04Z" fill="#e4c59e" stroke="#e4c59e" stroke-miterlimit="10" stroke-width="3.78"/>
  <path d="M287.06,8.92l58.5,1.36.82,73.74,16.6-14.42h54.97l-34.29,66.94,31.84,65.58h-60.68l-11.43-15.24-5.44,14.42-50.88-.54V8.92Z" fill="#e4c59e" stroke="#e4c59e" stroke-miterlimit="10" stroke-width="3.78"/>
  <path d="M515.09,62.8c47.89,0,60.68,51.43,60.68,86.53l-60.68,13.06,44.63,21.5-11.16,24.22c-56.33,0-106.67-19.86-106.67-76.46,0-35.1,20.14-68.84,73.2-68.84ZM529.51,129.47s-4.08-19.86-23.95-14.42c-14.97,4.35-9.8,24.22-9.8,24.22l33.74-9.8Z" fill="#e4c59e" stroke="#e4c59e" stroke-miterlimit="10" stroke-width="3.78"/>
  <path d="M623.94,101.99l-18.78.82,2.18-34.56,17.96-1.09.82-31.02,63.13-2.18.82,34.01,30.75-.27.54,30.75-32.11,1.36,2.18,52.52h34.29c.27,14.97-4.63,56.33-55.51,56.33-46.8,0-47.08-35.37-46.8-57.69l.54-48.98Z" fill="#e4c59e" stroke="#e4c59e" stroke-miterlimit="10" stroke-width="3.78"/>
</svg>